<svg width="64" height="64" viewBox="0 0 64 64" fill="none" xmlns="http://www.w3.org/2000/svg">
<rect width="64" height="64" rx="2" fill="white"/>
<path fill-rule="evenodd" clip-rule="evenodd" d="M15.4725 62.6472H31.9265H32.0746H48.5279C50.0493 62.6819 52.2797 62.2831 54.1889 60.9163C56.2108 59.4688 57.7053 57.0475 57.7053 53.454L57.7075 45.8772V34.4123V30.1199V25.3266V24.9039L33.2449 1.86578C32.9138 1.55383 32.4982 1.3833 32.0746 1.35497V1.35086L32.028 1.3509L32.0002 1.35147L31.957 1.35076L31.9265 1.35086V1.35497C31.5032 1.3833 31.0876 1.55383 30.7562 1.86578L6.29297 24.9039V25.4365V30.1199V34.4123V45.9872L6.29513 53.454C6.29513 57.0475 7.78968 59.4688 9.81152 60.9163C11.7211 62.2831 13.9515 62.6819 15.4725 62.6472ZM53.918 26.5512L32.0005 5.90997L10.0824 26.5512V35.118C10.0846 35.1558 10.0858 35.1939 10.0858 35.2321V53.454C10.0858 55.8465 11.0108 57.1029 12.0135 57.8206C13.1178 58.6111 14.5019 58.8685 15.4 58.8449L15.4164 58.8445L15.4497 58.8442H31.9265H32.0746H48.5511L48.5844 58.8445L48.6007 58.8449C49.4989 58.8685 50.883 58.6111 51.9872 57.8206C52.9897 57.1029 53.9147 55.8465 53.9147 53.454V35.2321C53.9147 35.1939 53.9159 35.1559 53.918 35.1181V26.5512ZM26.7949 39.6836C27.7051 38.9961 29.3039 38.5302 32.0005 38.5096C34.6975 38.5302 36.2963 38.9961 37.2062 39.6836C38.0118 40.2922 38.5782 41.3113 38.5782 43.3502V53.454C38.5782 54.5041 39.427 55.3555 40.4736 55.3555H48.5511C49.5979 55.3555 50.4464 54.5041 50.4464 53.454V29.2263C50.4464 28.7103 50.2375 28.2165 49.8676 27.8582L33.264 11.7792C32.9302 11.456 32.5068 11.2791 32.0746 11.2502V11.2461C32.0499 11.2458 32.0252 11.246 32.0005 11.2467C31.9759 11.246 31.9512 11.2458 31.9265 11.246V11.2502C31.4945 11.2791 31.0709 11.456 30.7371 11.7792L14.1332 27.8582C13.7633 28.2165 13.5541 28.7103 13.5541 29.2263L13.5544 53.454C13.5544 54.5041 14.4029 55.3555 15.4497 55.3555H23.5272C24.5741 55.3555 25.4225 54.5041 25.4225 53.454V43.3502C25.4225 41.3113 25.9893 40.2922 26.7949 39.6836ZM32.0005 15.8408L17.3451 30.0336V51.5525H21.6319V43.3502C21.6319 40.5513 22.4584 38.199 24.5145 36.6456C26.3904 35.2286 28.9716 34.7332 31.9265 34.7062L32.0005 34.7066L32.0746 34.7062C35.0297 34.7332 37.6107 35.2287 39.4862 36.6457C41.5426 38.199 42.3689 40.5513 42.3689 43.3502V51.5525H46.6557V30.0336L32.0005 15.8408Z" fill="#2A3D44"/>
<rect x="0.5" y="0.5" width="63" height="63" rx="1.5" stroke="black" stroke-opacity="0.1"/>
</svg>
